<svg id="Camada_1" data-name="Camada 1" xmlns="http://www.w3.org/2000/svg" viewBox="0 0 3423.43 775.92"><defs><style>.cls-1{fill:#fff;}</style></defs><path class="cls-1" d="M2075.27,1711.83l-.34-.53a43.5,43.5,0,0,0-5.18.29c-6.66,1.17-13.4,2.28-19.85,3.73-12.29,2.75-24.28,5.74-35.83,9.37-7.85,2.46-14.7,5.22-20.45,8.77-1.79,1.11-3.15,2.88-3,4.28.43,3.21,3.41,5.88,9.44,7.21a104.62,104.62,0,0,0,12.58,2.31,309.71,309.71,0,0,1,53.71,9.7,397.67,397.67,0,0,0,45.73,9.48c20.5,3.12,41.24,5.8,61.83,8.76a27.77,27.77,0,0,1,8,2.06,42,42,0,0,0,16.18,4.07q16,1.23,32.06,2.48c22.5,1.75,44.91,3.91,67.51,5.19,25.2,1.42,50.56,2,75.85,3,6.79.27,13.56.61,20.35.85,2.36.08,5,.34,7.79-1.25-13.11-.73-25.19-1.5-37.31-2.06-19.4-.88-38.83-1.59-58.24-2.43-4.9-.21-9.94-.29-14.62-1-26.91-3.92-53.66-8.14-80.6-12-36.23-5.17-70.89-12.18-102.72-22.73-2.18-.72-4.51-1.33-6.86-1.88a66,66,0,0,0-24-1.68,36.76,36.76,0,0,1-6.31.16,234,234,0,0,1-51.48-8.32c-11-3-10.18-10.22.68-13.56a495.1,495.1,0,0,1,51.81-13.18A20.82,20.82,0,0,0,2075.27,1711.83ZM625.84,1575.19l-.5,1.37c5.41.46,10.81,1,16.24,1.36,17.68,1.21,35.34,2.51,53.07,3.49,18.89,1,37.83,1.82,56.78,2.55,6,.23,12.05-.1,18.08-.18-24.07-1.55-48.08-2.82-72.07-4.21S649.7,1576.65,625.84,1575.19Z" transform="translate(-288.28 -1564.78)"/><path d="M2825.56,2091.72a21.23,21.23,0,0,0,3,1.46c36.2,11.16,72.33,22.37,109.84,32.32,20.29,5.38,40.25,11.1,60.51,16.51,30.14,8.06,61.92,14.14,93.11,20.94q79.26,17.28,158.47,34.65,85.16,18.49,170.5,36.77c18,3.85,36.26,7.44,54.55,10.93,10.1,1.93,20.37,3.71,30.81,5,13.45,1.69,27.15,2.85,40.74,4.23,5.53.57,11.11,1,16.56,1.75a71.11,71.11,0,0,1,9.72,2,156.61,156.61,0,0,1,55.63,28.11c10.84,8.45,21,17.16,31.38,25.75a17.68,17.68,0,0,1,2.77,2.56c7.29,9.67,21.57,16.14,36.94,22.11,1.13.44,2.33.84,3.47,1.27,2.08.8,1.15,1.7.28,2.59h-1.41c-1.51-.57-3-1.2-4.55-1.71a120.46,120.46,0,0,1-26.79-12.39c-18.15-11.24-36.53-22.39-55-33.51a125.2,125.2,0,0,0-29.7-12.87,31.65,31.65,0,0,1-4.65-1.66c-15.89-7.61-34.71-13-52.76-18.95a272.31,272.31,0,0,0-41.7-9.73c-40-6.44-78.37-15.1-116.78-23.71-36.69-8.21-73.57-16.18-110.37-24.26a36.15,36.15,0,0,0-3.94-.8c-17.28-1.82-32.39-6.38-48.2-10.12-23.51-5.57-47.38-10.73-71.23-15.9-13.44-2.91-27.08-5.57-40.74-8.2q-55.61-10.71-108.21-24.93-45.39-12.23-90.13-25.08c-48.77-14-97.2-28.36-145.91-42.44-22-6.35-44.48-12.23-66.44-18.61-11.67-3.39-22.7-7.39-34-11.12a15.28,15.28,0,0,0-2.88-1c-10.1-1.22-16.6-5.34-24.55-8.27-15.85-5.82-28.73-13.35-42.26-20.48a58.29,58.29,0,0,1-12.36-8.87c-5.67-5.22-4.52-10.44,2.76-15.08,10-6.36,19.51-12.92,32.39-17.86a41.2,41.2,0,0,0,7-3.63c10.29-6.38,20.47-12.81,30.72-19.21,4-2.52,6.33-5.38,7.06-8.66,2.59-11.53,1-22.8-7.87-33.56-3.79-4.6-7.56-9.33-13-13.42a129.65,129.65,0,0,0-21.61-13c-11.08-5.34-24.26-9.28-38-12.55-12.25-2.92-20.27-7.33-22-14.53-.65-2.69-3.5-4.8-8.16-6.11-6.69-1.88-10.64-4.65-11.44-8.69-.61-3.06-4.07-5.26-9.4-6.4-10.63-2.27-21.31-4.5-32.16-6.45-6.86-1.24-14.23-1.71-21.09-2.93-18.82-3.38-38.44-3.28-57.86-3.64-28.18-.51-56.39-.57-84.59-.63-6.48,0-13,.83-19.46,1.24-18,1.11-36,1.65-54.17,1.42-2.33,0-4.67.23-7,.34-8.17.37-16.34.8-24.53,1.1q-37.24,1.35-74.51,2.63c-10.07.33-20.17.45-30.26.72q-26.37.69-52.73,1.44c-10.79.3-21.57.78-32.36.89q-23.6.26-47.22.06c-6.77,0-13.55-.45-20.29-.83-6.55-.37-12.9-.67-19.44.51-3.62.66-7.9.47-11.88.42-39-.46-78-.56-117-1.59-33.28-.87-66.49-2.69-99.68-4.37-18.21-.91-36.3-2.51-54.49-3.56-10.74-.63-21.57-.84-32.36-1.15-37.79-1.09-75.57-2.23-113.37-3.19-34-.87-68.11-1.46-102.15-2.3-11.26-.27-22.47-1.1-33.73-1.37-15.49-.38-31-.47-46.52-.68-36-.49-71.83-1.88-107.46-4.54-6.42-.48-12.63-1.8-18.88-2.81-4.37-.71-7-2.33-8.54-5a40.86,40.86,0,0,1,6.45-2.37c6.51-1.36,13.1-2.7,19.88-3.62,24.14-3.29,48.84-4.92,73.54-6.63,25.6-1.79,51-4.22,76.59-6.21,28.58-2.22,57.2-4.26,85.81-6.36,20.71-1.52,41.51-2.75,62.11-4.56,28.46-2.5,56.76-5.5,85.18-8.13,6.67-.62,13.57-.55,20.33-1a896.69,896.69,0,0,0,112.19-13.84c10.16-1.89,20.15-3.95,30.12-6.09,12.79-2.74,25.87-5.2,39.16-7.17,27.52-4.1,55.27-7.77,82.91-11.66a24.71,24.71,0,0,1,10.92.37l-7.73,1.13c-30.78,4.4-61.77,8.43-92.25,13.33-18.54,3-36.28,7.31-54.39,11-28,5.73-56.51,10.73-86.34,13.21-10.43.86-21,1.07-31.52,1.79-17,1.16-34,2.35-50.9,3.82-12.73,1.1-25.65,2.11-37.87,4.15-15.14,2.53-30.82,3.06-46.15,4.73-25.29,2.75-50.46,5.78-75.67,8.71-9.38,1.09-18.82,2.09-28.09,3.41a137,137,0,0,0-15,3.16,25.57,25.57,0,0,0-7.07,2.94c-3.23,2-2.24,4.33,2.21,5.52a86.47,86.47,0,0,0,8.61,1.59c19,3,38.42,4.67,58,5.83,24.28,1.44,48.57,2.85,72.89,4.08,11.22.56,22.55.53,33.78,1,22.94,1,45.86,2.23,68.77,3.44,15,.79,29.9,1.62,44.81,2.62,25.14,1.68,50.2,3.69,75.38,5.2,17.25,1,34.64,1.49,52,2.14,15.68.6,31.36,1.28,47.07,1.62,17.37.37,34.77.5,52.16.57,25.39.1,50.81-.29,76.17.18,20,.37,39.9,1.12,59.86.66,19.22-.44,38.4-1.28,57.6-1.91,3.28-.11,6.58-.1,9.87-.1,21.82,0,43.74,0,65.24-1.82,27.55-2.3,55.25-2,82.9-2.86,23.68-.69,47.33-1.38,71-2.52,29.18-1.41,58.59-2.19,88-.78,16.61.8,33.29,1.13,49.92,1.82,5.83.25,11.73.68,17.35,1.49,18.53,2.67,37.61,4.41,55.15,8.78,2.33.58,4.72,1.1,7,1.72,5.72,1.55,9.67,3.83,10.81,7.27,1,3.09,4.2,5.44,9.43,7,6.65,1.94,10.37,4.78,11.15,8.8,1.21,6.22,8,10.5,18.82,12.71a194.83,194.83,0,0,1,46.15,16c11.45,5.49,20.18,12.24,28.88,18.94,2.76,2.13,5.26,4.35,7.87,6.54a6.74,6.74,0,0,0,6,2c3.38-.36,3.25-1.77,3.62-3.13,2.41-9.08-2.87-17.48-8.37-25.85q-3.89-5.91-8-11.77c-2.08-2.93-.86-5.54,2.37-8,3.94-3,9.27-5.19,15.41-6.84q20.36-5.49,40.75-10.92c1.25-.34,2.56-.63,3.76-1,5.46-1.71,7-4,3.56-6.81a23.82,23.82,0,0,0-8-4,225.82,225.82,0,0,0-30.27-6.84c-42.09-6.3-82.38-15-122.26-24.4-22.69-5.31-45.93-10-68.82-15.07-9.28-2.06-18.27-4.47-27.4-6.71-14-3.44-27.77-7.21-42.14-10.18-8.61-1.78-17.05-3.34-23.66-6.88a23.73,23.73,0,0,0-4.88-1.42c-28-6.74-57.31-11.6-87.1-15.69-2.49-.34-5.1-.41-7.64-.67-9.21-.92-18.63-1.47-27.56-2.87-25.87-4-51.53-8.43-77.28-12.66a78.71,78.71,0,0,1-18.65-5c-8-3.49-8.81-5.83-3.2-10.47a52.86,52.86,0,0,1,7.33-4.42c6.23-3.49,12.74-6.86,18.72-10.47,4-2.38,2.59-6.49-2.56-8.93a48.86,48.86,0,0,0-6.46-2.2c-16.72-5-34.9-7.93-53.53-10-22.67-2.54-45.5-4.71-68.34-6.84-21.24-2-42.64-3.5-63.84-5.59-30-3-60.27-5-90.45-7.33-3.65-.28-7.45,0-11.33,0-.72,2,2.34,2.25,4.51,2.7,10,2.08,20.15,4.06,30.21,6.11q28.52,5.84,57,11.71a169.62,169.62,0,0,1,32,9.9c3.08,1.3,6.44,2.43,9.67,3.63.57.21,1.17.42,1.7.65,6.15,2.73,6,4.64-.87,6.77-17,5.33-35.4,9-53.85,12.72-15.87,3.16-32.3,5.14-48.94,6.76-4.84.47-9.59,1.2-14.43,1.71-2.61.27-5.31.31-8,.46l-.39-.83c2.74-.49,5.45-1,8.22-1.47,20.62-3.34,41.48-6.33,61.8-10.1,15-2.78,29.34-6.51,43.86-10,7.75-1.84,8.09-5.62,1-8.25a346.5,346.5,0,0,0-53.92-15c-22.66-4.39-45.12-9.07-67.9-13.29a552.29,552.29,0,0,0-70.38-8.86c-13.54-.76-27.15-1.25-40.62-2.23-19.3-1.41-38.48-3.26-57.75-4.74s-38.61-2.79-57.93-4.09c-17.23-1.16-34.51-2.12-51.73-3.32q-44.67-3.11-89.27-6.44c-18.35-1.38-36.6-3.1-54.93-4.57-6.25-.5-12.61-.66-18.91-1l-68-3.66c-3.74-.2-7.5-.29-11.24-.5-28.25-1.54-56.52-3-84.74-4.69-17-1-33.93-2.4-50.9-3.59-15.82-1.1-31.67-2.11-47.48-3.24-19.06-1.36-38.32-2.28-57.08-4.38-14.81-1.66-29.58-2.4-44.57-3-19.68-.74-39.3-2-58.93-3-17.31-.91-34.62-1.75-51.9-2.77q-61.59-3.64-123.16-7.44-38.14-2.32-76.27-4.8c-2.12-.14-4.21-.43-6.31-.65l.2-1h6.53c28.5.13,56.73,1.77,84.89,3.94,30.9,2.38,61.75,4.82,93.16,5.06,14.91.12,29.79,2,44.64,3.13,26,2.07,52.13,3.65,78.5,4.16,11.18.22,22.31,1.51,33.42,2.47,11.55,1,23,2.31,34.57,3.29,17.13,1.45,34.37,2.59,51.47,4.12,16.19,1.45,32.48,2.36,48.77,3.35,11.19.67,22.32,1.58,33.51,2.27,11.89.74,23.81,1.35,35.71,2q22.41,1.24,44.82,2.48c13.08.7,26.24,1.09,39.24,2.08,25.57,1.93,51.41,2.18,77,3.76,12.09.75,24,2.23,36.07,3.19q32,2.54,64.09,4.84,28.23,2.07,56.52,4c18.39,1.21,36.83,2.24,55.22,3.43,5.1.33,10.11,1,15.21,1.4q45,3.24,90,6.36c7.9.53,15.89.74,23.86,1,7,.23,13.93.24,20.94,1.11,6.28.78,13.13.2,19.64.61,17,1.09,34,2.19,50.94,3.65,43.52,3.78,87,7.79,130.46,11.63,20.35,1.8,40.74,3.46,61.14,5.1,24.56,2,49.16,3.78,73.71,5.74,18.05,1.45,34.73,5.15,51.37,8.85a31.2,31.2,0,0,1,7.36,2.79c2.54,1.3,2.21,2.58-.63,3.75-1.46.6-3.33.93-4.81,1.51-5,2-10.21,3.9-14.81,6.13a37.25,37.25,0,0,1-11.48,3.39c-3.86.53-8,.68-11.59,1.51a106.76,106.76,0,0,0-15.2,4.45c-8,3.21-6.1,10,1.29,12,5.42,1.43,10.51,3.37,16.22,4.29q51.12,8.28,102.47,16.15c29.49,4.55,59.08,8.91,88.6,13.39a61.33,61.33,0,0,1,20.24,6.37,67.19,67.19,0,0,0,13.68,5.06c14.54,4,29.3,7.76,44,11.56,5.89,1.52,11.87,3,17.89,4.32,20,4.57,39.89,9.3,60.13,13.57,39.58,8.37,78.66,17.42,119.82,23.64,8.51,1.29,16.57,3.39,24.86,5.09,1.95.4,4,.72,6,1,13.18,2.2,26.45,4.29,39.53,6.65a149.17,149.17,0,0,1,15.88,3.93c4.74,1.41,4.85,3.77.37,5.24-7.34,2.42-14.62,5-22.49,6.85a84.2,84.2,0,0,1-16.38,1.65,169.93,169.93,0,0,0-47.71,8.12c-9.67,3.11-11.38,5.36-8.27,11.14a208,208,0,0,0,12.83,21.4c3.4,4.85,4.62,9.6,3.94,14.74-1.12,8.46-2.12,16.89-6.34,25.12-1.94,3.77-3.21,7.69-5.95,11.3a53.79,53.79,0,0,1-10.79,10.66,290.32,290.32,0,0,0-35.61,31.29,59.63,59.63,0,0,0-11.88,17.65c-2,4.57-.45,9,2.87,13.32,5.22,6.75,13.42,12.43,24.35,16.86a735.46,735.46,0,0,0,93.7,31c19.82,5.08,39.36,10.46,59.09,15.62,35.07,9.18,72.08,15.28,110.55,19.13,24.41,2.44,48.69,5.23,73.11,7.62,12,1.18,24.14,1.82,36.23,2.64,13.49.91,27,1.85,40.5,2.59,14,.77,28,1.44,42.08,1.93,23.67.83,47.48,1,71,2.35,22.58,1.35,44.88,3.94,67.3,6,19.24,1.75,38,4.35,56.38,7.87,16.33,3.12,28.39,8.6,37.47,16,8.35,6.79,18.5,12.65,29.93,18a308.49,308.49,0,0,0,61,20.89c15.4,3.6,30.23,7.86,45.31,11.82.21,0,.41.12.63.16,21.82,4.38,41,11.41,61.85,16.74,23,5.87,46.71,10.9,70.06,16.37,10.69,2.5,21.23,5.2,31.84,7.8,21.68,5.32,43.25,10.75,65.08,15.88,8.73,2.06,18,3.45,27.05,5.15,1,.19,2,.44,3,.66l-.38.73c-4.48-.48-9-.85-13.43-1.47a259.13,259.13,0,0,1-39.31-8.87c-3.41-1-7.21-1.71-10.85-2.54-8.39-1.9-16.84-3.73-25.18-5.69-30.39-7.15-60.62-14.49-91.15-21.47-22.64-5.18-44.38-11.2-66-17.39-12.74-3.64-26.1-6.68-39.17-10-2.52-.65-5-1.38-7.44-2.08a26.78,26.78,0,0,0-4.27-1.22c-19.69-2.32-37.27-7.36-55.28-11.79a358.28,358.28,0,0,1-60.37-20.88c-7.07-3.14-13.54-6.75-21-9.68-5.44-2.13-11-4.22-17-5.93-18.72-5.39-37.89-10.31-58-14.15-9-1.73-17.85-3.76-26.88-5.5a207.72,207.72,0,0,0-32.08-3.76c-22.73-.8-45.46-1.61-68.13-2.74-27.57-1.37-55.19-2.66-82.57-4.72-46.43-3.51-92.74-7.45-138.1-13.89-7.69-1.09-15.21-2.52-22.86-3.7-2.2-.34-4.59-.36-6.9-.53-1.51-1-2.65-2.47-5.8-1C2820.88,2092.28,2823.47,2091.58,2825.56,2091.72Z" transform="translate(-288.28 -1564.78)"/><path d="M438.07,1564.78c2.73.28,5.43.68,8.17.81q17.86.89,35.73,1.63c11.46.49,22.94.83,34.38,1.38q37.49,1.82,74.92,3.78a13.19,13.19,0,0,1,3.79.84,83.41,83.41,0,0,1-16.87-.1c-5.55-.43-11.11-.84-16.7-1.06-19.39-.75-38.79-1.39-58.18-2.11q-20-.75-40-1.6a46.23,46.23,0,0,1-6.9-.61c-8.59-1.74-17.47-1.38-26.37-1.35-34.52.12-69,.1-103.56.2-8.91,0-17.83.32-26.75.44-3,0-6.09,0-9.13-.14-2.86-.09-2.4-1.13-2.06-2.11Z" transform="translate(-288.28 -1564.78)"/><path d="M2075.27,1711.83a20.82,20.82,0,0,1-3.22,1.16,495.1,495.1,0,0,0-51.81,13.18c-10.86,3.34-11.69,10.52-.68,13.56a234,234,0,0,0,51.48,8.32,36.76,36.76,0,0,0,6.31-.16,66,66,0,0,1,24,1.68c2.35.55,4.68,1.16,6.86,1.88,31.83,10.55,66.49,17.56,102.72,22.73,26.94,3.84,53.69,8.06,80.6,12,4.68.68,9.72.76,14.62,1,19.41.84,38.84,1.55,58.24,2.43,12.12.56,24.2,1.33,37.31,2.06-2.83,1.59-5.43,1.33-7.79,1.25-6.79-.24-13.56-.58-20.35-.85-25.29-1-50.65-1.6-75.85-3-22.6-1.28-45-3.44-67.51-5.19q-16-1.26-32.06-2.48a42,42,0,0,1-16.18-4.07,27.77,27.77,0,0,0-8-2.06c-20.59-3-41.33-5.64-61.83-8.76a397.67,397.67,0,0,1-45.73-9.48,309.71,309.71,0,0,0-53.71-9.7,104.62,104.62,0,0,1-12.58-2.31c-6-1.33-9-4-9.44-7.21-.19-1.4,1.17-3.17,3-4.28,5.75-3.55,12.6-6.31,20.45-8.77,11.55-3.63,23.54-6.62,35.83-9.37,6.45-1.45,13.19-2.56,19.85-3.73a43.5,43.5,0,0,1,5.18-.29Z" transform="translate(-288.28 -1564.78)"/><path d="M625.84,1575.19c23.86,1.46,47.72,3,71.6,4.38s48,2.66,72.07,4.21c-6,.08-12.1.41-18.08.18-18.95-.73-37.89-1.51-56.78-2.55-17.73-1-35.39-2.28-53.07-3.49-5.43-.37-10.83-.9-16.24-1.36Z" transform="translate(-288.28 -1564.78)"/></svg>